# xmcd
#
# Track frame offsets: 
#        150
#        38790
#        57969
#        75166
#        90748
#        113915
#        131853
#        157296
#        177601
#        196040
#        210131
#
# Disc length: 3076 seconds
#
# Revision: 2
# Processed by: cddbd v1.5.2PL0 Copyright (c) Steve Scherf et al.
# Submitted via: ExactAudioCopy v1.0b4
#
DISCID=8e0c020b
DTITLE=Big Gilson - Sentenced To Living
DYEAR=2009
DGENRE=Blues
TTITLE0=I Wonder Who
TTITLE1=Sentenced To Living
TTITLE2=Ready
TTITLE3=Tobacco Road
TTITLE4=It's Hard To Say Goodbye
TTITLE5=Start It Over
TTITLE6=Dancing On Hot Bricks
TTITLE7=Take Me To The River
TTITLE8=Way Down In Hastings
TTITLE9=Silver Train
TTITLE10=Yer Blues
EXTD=YEAR: 2009
EXTT0=
EXTT1=
EXTT2=
EXTT3=
EXTT4=
EXTT5=
EXTT6=
EXTT7=
EXTT8=
EXTT9=
EXTT10=
PLAYORDER=
